<?xml version="1.0" encoding="UTF-8"?>
<svg xmlns="http://www.w3.org/2000/svg" width="212.0" height="96.0" viewBox="0 0 106.0 48.0">
  <g>
    <path d="M24,48C34.517,48 40.363,48 44.182,44.182C48,40.363 48,34.52 48,24C48,13.48 48,7.637 44.182,3.818C40.363,0 34.517,0 24,0C13.483,0 7.637,0 3.818,3.818C0,7.637 0,13.483 0,24C0,34.517 0,40.363 3.818,44.182C7.637,48 13.483,48 24,48Z" fill="#000000" />
    <path d="M33.014,19.255C31.201,19.255 29.855,20.654 29.855,22.381C29.855,23.791 30.847,24.892 32.102,25.217L29.529,29.158H31.932L34.119,25.49H35.756V29.158H37.763V19.255H33.014ZM33.29,23.815C32.465,23.815 31.954,23.167 31.954,22.429C31.954,21.691 32.422,20.988 33.29,20.988H35.759V23.815H33.29Z" fill="#ffffff" />
    <path d="M22.027,19.255L21.361,21.088L24.093,21.072L22.475,27.007C22.014,28.737 23.817,30.044 25.356,29.027L28.856,26.652L27.825,25.138L24.33,27.559L26.686,19.255H22.027Z" fill="#ffffff" />
    <path d="M25.795,17.981C26.562,17.981 27.183,17.421 27.183,16.73C27.183,16.039 26.562,15.479 25.795,15.479C25.028,15.479 24.406,16.039 24.406,16.73C24.406,17.421 25.028,17.981 25.795,17.981Z" fill="#ffffff" />
    <path d="M18.713,27.33V16.953H11.015V22.491C11.015,25.097 10.26,26.708 9.815,27.326H8.903V31.851H10.855V29.176H18.154V31.856H20.106V27.33H18.713ZM12.956,22.377V18.794H16.711V27.324H11.863C12.303,26.605 12.956,24.775 12.956,22.377Z" fill="#ffffff" />
    <path d="M61.576,4.529L61.577,4.527C63.277,2.823 65.456,1.927 68.586,1.467C71.748,1.002 75.754,1 81.044,1C86.334,1 90.34,1.002 93.504,1.466C96.634,1.924 98.816,2.819 100.52,4.519C102.225,6.224 103.122,8.406 103.581,11.536C104.046,14.7 104.048,18.706 104.048,23.996C104.048,29.285 104.046,33.291 103.581,36.455C103.122,39.585 102.225,41.767 100.52,43.472C98.816,45.177 96.632,46.073 93.5,46.533C90.335,46.998 86.329,47 81.044,47C75.758,47 71.753,46.998 68.589,46.533C65.458,46.073 63.277,45.177 61.577,43.473L61.576,43.472C59.872,41.768 58.975,39.583 58.515,36.452C58.051,33.287 58.048,29.281 58.048,23.996C58.048,18.71 58.051,14.704 58.515,11.54C58.975,8.41 59.872,6.229 61.576,4.529Z" stroke="#FFFFFF" stroke-width="2.0" />
    <path d="M80.014,39.424C78.289,38.11 77.018,36.149 76.608,33.864H71.048V9.834C74.044,11.321 76.177,14.618 76.436,18.024L77.276,24.769L76.867,24.705C75.962,24.705 75.186,25.545 75.186,26.386C75.186,27.162 75.789,27.83 76.565,28.002L77.578,28.239C79.259,25.071 80.208,21.968 80.208,18.907C80.208,16.149 79.841,13.412 79.798,10.61C79.798,9.36 80.272,8.218 81.048,7.334C81.824,8.239 82.298,9.36 82.298,10.61C82.298,13.412 81.889,16.17 81.889,18.907C81.889,21.946 82.837,25.071 84.518,28.239L85.531,28.002C86.307,27.83 86.91,27.162 86.91,26.386C86.91,25.545 86.134,24.705 85.229,24.705L84.82,24.769L85.66,18.024C86.07,14.618 88.052,11.321 91.048,9.834V33.864H85.488C85.078,36.127 83.871,38.174 82.083,39.424C81.673,39.726 81.307,40.093 81.07,40.567C80.789,40.071 80.423,39.726 80.014,39.424ZM73.677,25.567C73.914,24.662 74.583,23.886 75.401,23.412L74.733,17.851C74.496,16.127 73.785,14.575 72.708,13.304V25.545H73.677V25.567ZM76.501,32.183C76.501,31.343 76.63,30.567 76.802,29.791L76.026,29.618C74.884,29.252 74.001,28.368 73.699,27.226H72.751V32.183H76.501ZM80.186,32.183C80.186,31.17 79.41,30.265 78.397,30.157C78.225,30.804 78.095,31.472 78.095,32.183H80.186ZM80.186,33.864H78.333C78.634,35.179 79.281,36.364 80.186,37.399V33.864ZM82.815,28.67C82.104,27.355 81.436,25.976 81.026,24.554C80.617,25.998 79.949,27.355 79.238,28.67C79.949,28.843 80.552,29.317 81.026,29.855C81.501,29.317 82.104,28.843 82.815,28.67ZM83.958,32.183C83.958,31.472 83.828,30.804 83.656,30.157C82.643,30.287 81.867,31.17 81.867,32.183H83.958ZM83.72,33.864H81.867V37.399C82.772,36.364 83.419,35.179 83.72,33.864ZM89.345,32.183V27.226H88.397C88.095,28.368 87.212,29.252 86.07,29.618L85.294,29.791C85.466,30.567 85.595,31.343 85.595,32.183H89.345ZM89.345,25.567V13.325C88.268,14.575 87.492,16.127 87.32,17.873L86.651,23.433C87.492,23.907 88.139,24.683 88.376,25.588H89.345V25.567Z" fill="#FFFFFF" />
  </g>
</svg>
